<svg xmlns="http://www.w3.org/2000/svg" viewBox="-20 -36 932 344" xmlns:c2pa="http://c2pa.org/manifest"><metadata><c2pa:manifest>AAAWgmp1bWIAAAAeanVtZGMycGEAEQAQgAAAqgA4m3EDYzJwYQAAABZcanVtYgAAAEdqdW1kYzJtYQARABCAAACqADibcQN1cm46YzJwYTpjZDk4NDlhNC03YjM2LTRkZmYtOWFhZi0zZjExMTg4MzZkYjQAAAADl2p1bWIAAAApanVtZGMyYXMAEQAQgAAAqgA4m3EDYzJwYS5hc3NlcnRpb25zAAAAALxqdW1iAAAARGp1bWRjYm9yABEAEIAAAKoAOJtxE2MycGEuaW5ncmVkaWVudC52MwAAAAAYYzJzaAtsdiMJacpc8CL6a5hAR40AAABwY2JvcqNpZGM6Zm9ybWF0bWltYWdlL3N2Zyt4bWxqaW5zdGFuY2VJRHgseG1wOmlpZDo5ZGQ5ODZmZC05MjdlLTQwYWEtYTQ4Ny01NGYwZTc3OTdhOThscmVsYXRpb25zaGlwaHBhcmVudE9mAAAB4mp1bWIAAABBanVtZGNib3IAEQAQgAAAqgA4m3ETYzJwYS5hY3Rpb25zLnYyAAAAABhjMnNoMlHnDSyzbSlzqIQTK5uEHAAAAZljYm9yomdhY3Rpb25zgqJmYWN0aW9ua2MycGEub3BlbmVkanBhcmFtZXRlcnOha2luZ3JlZGllbnRzgaJjdXJseC1zZWxmI2p1bWJmPWMycGEuYXNzZXJ0aW9ucy9jMnBhLmluZ3JlZGllbnQudjNkaGFzaFgg3d8k5WFMV8o1s9ZBlfPWADPKM+C8Ib0RtkUoRiuKPx2kZmFjdGlvbngdY29tLmFudGhyb3BpYy5jbGF1ZGUucHJvdmlkZWRqcGFyYW1ldGVyc6F4H2NvbS5hbnRocm9waWMub3JpZ2luLWNvbmZpZGVuY2VndW5rbm93bmtkZXNjcmlwdGlvbnhmQ2xhdWRlIHByb3ZpZGVkIHRoaXMgZmlsZSBhdCB0aGUgcmVxdWVzdCBvZiBhIHVzZXIgYW5kIG1heSBoYXZlIGNyZWF0ZWQgb3IgbW9kaWZpZWQgdGhlIGZpbGUgY29udGVudHMubXNvZnR3YXJlQWdlbnShZG5hbWVmQ2xhdWRlcmFsbEFjdGlvbnNJbmNsdWRlZPUAAADIanVtYgAAAEBqdW1kY2JvcgARABCAAACqADibcRNjMnBhLmhhc2guZGF0YQAAAAAYYzJzaN5f1oNUTrqAiTjaYVE9K1YAAACAY2JvcqVjYWxnZnNoYTI1NmNwYWRNAAAAAAAAAAAAAAAAAGRoYXNoWCBAGgRD+gR3OfozgiJHXeC1zboNAa/w8CT9+DzKsvV7RWRuYW1lbmp1bWJmIG1hbmlmZXN0amV4Y2x1c2lvbnOBomVzdGFydBiBZmxlbmd0aBkeBAAAAj5qdW1iAAAAJ2p1bWRjMmNsABEAEIAAAKoAOJtxA2MycGEuY2xhaW0udjIAAAACD2Nib3KlY2FsZ2ZzaGEyNTZpc2lnbmF0dXJleE1zZWxmI2p1bWJmPS9jMnBhL3VybjpjMnBhOmNkOTg0OWE0LTdiMzYtNGRmZi05YWFmLTNmMTExODgzNmRiNC9jMnBhLnNpZ25hdHVyZWppbnN0YW5jZUlEeCx4bXA6aWlkOmFlNmViNDk2LTA0MGMtNGZmNC1iOWJiLTU4ODFlMGJjNDljNHJjcmVhdGVkX2Fzc2VydGlvbnODomN1cmx4LXNlbGYjanVtYmY9YzJwYS5hc3NlcnRpb25zL2MycGEuaW5ncmVkaWVudC52M2RoYXNoWCDd3yTlYUxXyjWz1kGV89YAM8oz4LwhvRG2RShGK4o/HaJjdXJseCpzZWxmI2p1bWJmPWMycGEuYXNzZXJ0aW9ucy9jMnBhLmFjdGlvbnMudjJkaGFzaFggmEH8Mo1BdA0R8250PSqcWlq91a7FGDxpEFsg/Srv5eaiY3VybHgpc2VsZiNqdW1iZj1jMnBhLmFzc2VydGlvbnMvYzJwYS5oYXNoLmRhdGFkaGFzaFggpQj3EjZeVS1yRzK9KUftvFghkSHVs4z+wQ0bZv+vWA90Y2xhaW1fZ2VuZXJhdG9yX2luZm+jZG5hbWVvQW50aHJvcGljIEZpbGVzZ3ZlcnNpb25lMS4wLjBrc3BlY1ZlcnNpb25lMi40LjAAABA4anVtYgAAAChqdW1kYzJjcwARABCAAACqADibcQNjMnBhLnNpZ25hdHVyZQAAABAIY2JvctKEWQISogEmGCFZAgowggIGMIIBjaADAgECAhRA5aAK7sI50L64g/oGQgU9Z1UTADAKBggqhkjOPQQDAzBJMRcwFQYDVQQKEw5BbnRocm9waWMsIFBCQzEuMCwGA1UEAxMlQW50aHJvcGljIENvbnRlbnQgQ3JlZGVudGlhbHMgUm9vdCBDQTAeFw0yNjA4MDcxODQzNTZaFw0yODA4MDYxOTQzNTZaMEQxFzAVBgNVBAoTDkFudGhyb3BpYywgUEJDMSkwJwYDVQQDEyBBbnRocm9waWMgQ2xhdWRlIENvbnRlbnQgU2lnbmluZzBZMBMGByqGSM49AgEGCCqGSM49AwEHA0IABJh6CmvLUBgFFNU0vUKlOVtE6djd17L5SuwX0LemFisBM3dkd/3cyjxFA3Qo5S46fX0/ihY0VZ7mfb9KF703t5OjWDBWMA4GA1UdDwEB/wQEAwIHgDAVBgNVHSUEDjAMBgorBgEEAYPoXgIBMAwGA1UdEwEB/wQCMAAwHwYDVR0jBBgwFoAUzlHiBIFOZFsj+OPEz5o+nMHXXMIwCgYIKoZIzj0EAwMDZwAwZAIwMXMdFJ4BetLLVY7ORuE9noqbbAZOZn/aArXyTwFAZfKrPzxF2vPoJNf1+UCdg1XGAjBwX1zd9WGqYkqmL5SFqw1QySjr1zJfpJM9+1rdDwSPLMOPOjKuiXjoU/pUUeG9RwmhY3BhZFkNngAAAAAAAAAAAAAAAAAAAAAAAAAAAAAAAAAAAAAAAAAAAAAAAAAAAAAAAAAAAAAAAAAAAAAAAAAAAAAAAAAAAAAAAAAAAAAAAAAAAAAAAAAAAAAAAAAAAAAAAAAAAAAAAAAAAAAAAAAAAAAAAAAAAAAAAAAAAAAAAAAAAAAAAAAAAAAAAAAAAAAAAAAAAAAAAAAAAAAAAAAAAAAAAAAAAAAAAAAAAAAAAAAAAAAAAAAAAAAAAAAAAAAAAAAAAAAAAAAAAAAAAAAAAAAAAAAAAAAAAAAAAAAAAAAAAAAAAAAAAAAAAAAAAAAAAAAAAAAAAAAAAAAAAAAAAAAAAAAAAAAAAAAAAAAAAAAAAAAAAAAAAAAAAAAAAAAAAAAAAAAAAAAAAAAAAAAAAAAAAAAAAAAAAAAAAAAAAAAAAAAAAAAAAAAAAAAAAAAAAAAAAAAAAAAAAAAAAAAAAAAAAAAAAAAAAAAAAAAAAAAAAAAAAAAAAAAAAAAAAAAAAAAAAAAAAAAAAAAAAAAAAAAAAAAAAAAAAAAAAAAAAAAAAAAAAAAAAAAAAAAAAAAAAAAAAAAAAAAAAAAAAAAAAAAAAAAAAAAAAAAAAAAAAAAAAAAAAAAAAAAAAAAAAAAAAAAAAAAAAAAAAAAAAAAAAAAAAAAAAAAAAAAAAAAAAAAAAAAAAAAAAAAAAAAAAAAAAAAAAAAAAAAAAAAAAAAAAAAAAAAAAAAAAAAAAAAAAAAAAAAAAAAAAAAAAAAAAAAAAAAAAAAAAAAAAAAAAAAAAAAAAAAAAAAAAAAAAAAAAAAAAAAAAAAAAAAAAAAAAAAAAAAAAAAAAAAAAAAAAAAAAAAAAAAAAAAAAAAAAAAAAAAAAAAAAAAAAAAAAAAAAAAAAAAAAAAAAAAAAAAAAAAAAAAAAAAAAAAAAAAAAAAAAAAAAAAAAAAAAAAAAAAAAAAAAAAAAAAAAAAAAAAAAAAAAAAAAAAAAAAAAAAAAAAAAAAAAAAAAAAAAAAAAAAAAAAAAAAAAAAAAAAAAAAAAAAAAAAAAAAAAAAAAAAAAAAAAAAAAAAAAAAAAAAAAAAAAAAAAAAAAAAAAAAAAAAAAAAAAAAAAAAAAAAAAAAAAAAAAAAAAAAAAAAAAAAAAAAAAAAAAAAAAAAAAAAAAAAAAAAAAAAAAAAAAAAAAAAAAAAAAAAAAAAAAAAAAAAAAAAAAAAAAAAAAAAAAAAAAAAAAAAAAAAAAAAAAAAAAAAAAAAAAAAAAAAAAAAAAAAAAAAAAAAAAAAAAAAAAAAAAAAAAAAAAAAAAAAAAAAAAAAAAAAAAAAAAAAAAAAAAAAAAAAAAAAAAAAAAAAAAAAAAAAAAAAAAAAAAAAAAAAAAAAAAAAAAAAAAAAAAAAAAAAAAAAAAAAAAAAAAAAAAAAAAAAAAAAAAAAAAAAAAAAAAAAAAAAAAAAAAAAAAAAAAAAAAAAAAAAAAAAAAAAAAAAAAAAAAAAAAAAAAAAAAAAAAAAAAAAAAAAAAAAAAAAAAAAAAAAAAAAAAAAAAAAAAAAAAAAAAAAAAAAAAAAAAAAAAAAAAAAAAAAAAAAAAAAAAAAAAAAAAAAAAAAAAAAAAAAAAAAAAAAAAAAAAAAAAAAAAAAAAAAAAAAAAAAAAAAAAAAAAAAAAAAAAAAAAAAAAAAAAAAAAAAAAAAAAAAAAAAAAAAAAAAAAAAAAAAAAAAAAAAAAAAAAAAAAAAAAAAAAAAAAAAAAAAAAAAAAAAAAAAAAAAAAAAAAAAAAAAAAAAAAAAAAAAAAAAAAAAAAAAAAAAAAAAAAAAAAAAAAAAAAAAAAAAAAAAAAAAAAAAAAAAAAAAAAAAAAAAAAAAAAAAAAAAAAAAAAAAAAAAAAAAAAAAAAAAAAAAAAAAAAAAAAAAAAAAAAAAAAAAAAAAAAAAAAAAAAAAAAAAAAAAAAAAAAAAAAAAAAAAAAAAAAAAAAAAAAAAAAAAAAAAAAAAAAAAAAAAAAAAAAAAAAAAAAAAAAAAAAAAAAAAAAAAAAAAAAAAAAAAAAAAAAAAAAAAAAAAAAAAAAAAAAAAAAAAAAAAAAAAAAAAAAAAAAAAAAAAAAAAAAAAAAAAAAAAAAAAAAAAAAAAAAAAAAAAAAAAAAAAAAAAAAAAAAAAAAAAAAAAAAAAAAAAAAAAAAAAAAAAAAAAAAAAAAAAAAAAAAAAAAAAAAAAAAAAAAAAAAAAAAAAAAAAAAAAAAAAAAAAAAAAAAAAAAAAAAAAAAAAAAAAAAAAAAAAAAAAAAAAAAAAAAAAAAAAAAAAAAAAAAAAAAAAAAAAAAAAAAAAAAAAAAAAAAAAAAAAAAAAAAAAAAAAAAAAAAAAAAAAAAAAAAAAAAAAAAAAAAAAAAAAAAAAAAAAAAAAAAAAAAAAAAAAAAAAAAAAAAAAAAAAAAAAAAAAAAAAAAAAAAAAAAAAAAAAAAAAAAAAAAAAAAAAAAAAAAAAAAAAAAAAAAAAAAAAAAAAAAAAAAAAAAAAAAAAAAAAAAAAAAAAAAAAAAAAAAAAAAAAAAAAAAAAAAAAAAAAAAAAAAAAAAAAAAAAAAAAAAAAAAAAAAAAAAAAAAAAAAAAAAAAAAAAAAAAAAAAAAAAAAAAAAAAAAAAAAAAAAAAAAAAAAAAAAAAAAAAAAAAAAAAAAAAAAAAAAAAAAAAAAAAAAAAAAAAAAAAAAAAAAAAAAAAAAAAAAAAAAAAAAAAAAAAAAAAAAAAAAAAAAAAAAAAAAAAAAAAAAAAAAAAAAAAAAAAAAAAAAAAAAAAAAAAAAAAAAAAAAAAAAAAAAAAAAAAAAAAAAAAAAAAAAAAAAAAAAAAAAAAAAAAAAAAAAAAAAAAAAAAAAAAAAAAAAAAAAAAAAAAAAAAAAAAAAAAAAAAAAAAAAAAAAAAAAAAAAAAAAAAAAAAAAAAAAAAAAAAAAAAAAAAAAAAAAAAAAAAAAAAAAAAAAAAAAAAAAAAAAAAAAAAAAAAAAAAAAAAAAAAAAAAAAAAAAAAAAAAAAAAAAAAAAAAAAAAAAAAAAAAAAAAAAAAAAAAAAAAAAAAAAAAAAAAAAAAAAAAAAAAAAAAAAAAAAAAAAAAAAAAAAAAAAAAAAAAAAAAAAAAAAAAAAAAAAAAAAAAAAAAAAAAAAAAAAAAAAAAAAAAAAAAAAAAAAAAAAAAAAAAAAAAAAAAAAAAAAAAAAAAAAAAAAAAAAAAAAAAAAAAAAAAAAAAAAAAAAAAAAAAAAAAAAAAAAAAAAAAAAAAAAAAAAAAAAAAAAAAAAAAAAAAAAAAAAAAAAAAAAAAAAAAAAAAAAAAAAAAAAAAAAAAAAAAAAAAAAAAAAAAAAAAAAAAAAAAAAAAAAAAAAAAAAAAAAAAAAAAAAAAAAAAAAAAAAAAAAAAAAAAAAAAAAAAAAAAAAAAAAAAAAAAAAAAAAAAAAAAAAAAAAAAAAAAAAAAAAAAAAAAAAAAAAAAAAAAAAAAAAAAAAAAAAAAAAAAAAAAAAAAAAAAAAAAAAAAAAAAAAAAAAAAAAAAAAAAAAAAAAAAAAAAAAAAAAAAAAAAAAAAAAAAAAAAAAAAAAAAAAAAAAAAAAAAAAAAAAAAAAAAAAAAAAAAAAAAAAAAAAAAAAAAAAAAAAAAAAAAAAAAAAAAAAAAAAAAAAAAAAAAAAAAAAAAAAAAAAAAAAAAAAAAAAAAAAAAAAAAAAAAAAAAAAAAAAAAAAAAAAAAAAAAAAAAAAAAAAAAAAAAAAAAAAAAAAAAAAAAAAAAAAAAAAAAAAAAAAAAAAAAAAAAAAAAAAAAAAAAAAAAAAAAAAAAAAAAAAAAAAAAAAAAAAAAAAAAAAAAAAAAAAAAAAAAAAAAAAAAAAAAAAAAAAAAAAAAAAAAAAAAAAAAAAAAAAAAAAAAAAAAAAAAAAAAAAAAAAAAAAAAAAAAAAAAAAAAAAAAAAAAAAAAAAAAAAAAAAAAAAAAAAAAAAAAAAAAAAAAAAAAAAAAAAAAAAAAAAAAAAAAAAAAAAAAAAAAAAAAAAAAAAAAAAAAAAAAAAAAAAAAAAAAAAAAAAAAAAAAAAAAAAAAAAAAAAAAAAAAAAAAAAAAAAAAAAAAAAAAAAAAAAAAAAAAAAAAAAAAAAAAAAAAAAAAAAAAAAAAAAAAAAAAAAAAAAAAAAAAAAAAAAAAAAAAAAAAAAAAAAAAAAAAAAAAAAAAAAAAAAAAAAAAAAAAAAAAAAAAAAAAAAAAAAAAAAAAAAAAAAAAAAAAAAAAAAAAAAAAAAAAAAAAAAAAAAAAAAAAAAAAAAAAAAAAAAAAAAAAAAAAAAAAAAAAAAAAAAAAAAAAAAAAAAAAAAAAAAAAAAAAAAAAAAAAAAAAAAAAAAAAAAAAAAAAAAAAAAAAAAAAAAAAAAAAAAAAAAAAAAAAAAAAAAAAAAAAAAAAAAAAAAAAAAAAAAAAAAAAAAAAAAAAAAAAAAAAAAAAAAAAAAAAAAAAAAAAAAAAAAAAAAAAAAAAAAAAAAAAAAAAAAAAAAAAAAAAAAAAAAAAAAAAAAAAAAAAAAAAAAAAAAAAAAAAAAAAAAAAAAAAAAAAAAAAAAAAAAAAAAAAAAAAAAAAAAAAAAAAAAAAAAAAAAAAAAAAAAAAAAAAAAAAAAAAAAAAAAAAAAAAAAAAAAAAAAAAAAAAAAPZYQL+EXNeh6cwVvCaJsYf0fGVgeKRPYT+D0mT41sC2KgZ3w2/EXrKBzOqjgMUC8hPMmO7AHW1O8Zbs5FCJmQzCaLs=</c2pa:manifest></metadata><title>lucitext</title><path fill="#2a1a24" fill-rule="evenodd" d="M127.47 291.81C127.35 291.70 126.35 291.50 125.25 291.37C108.93 289.40 95.38 276.85 91.04 259.69C89.06 251.83 88.99 250.18 88.81 210.50C88.74 192.49 88.50 176.64 88.29 175.28C86.45 163.31 80.70 154.33 72.08 149.94L69.25 148.51L91.12 148.63L112.99 148.75L113.14 194.50C113.23 219.66 113.44 240.93 113.61 241.75C116.19 254.19 120.37 261.05 128.64 266.42C138.21 272.63 151.52 273.04 162.54 267.48C170.21 263.61 176.55 256.50 179.02 248.99C180.25 245.25 180.25 245.25 180.25 210.25C180.25 191.00 180.06 173.79 179.82 172.01C178.51 162.04 173.56 153.55 167.00 150.00L164.25 148.52L184.62 148.51L205.00 148.50L205.04 199.62C205.09 253.34 205.09 253.57 206.25 258.12C208.32 266.26 214.44 272.05 221.08 272.15C224.06 272.20 224.06 272.22 221.12 273.55C219.82 274.15 217.40 275.25 215.75 276.00C214.10 276.75 211.62 277.87 210.25 278.49C208.88 279.11 206.40 280.24 204.75 281.01C201.14 282.68 196.16 284.96 192.75 286.49C191.38 287.11 188.14 288.60 185.57 289.81C182.99 291.01 180.80 292.00 180.69 292.00C180.59 292.00 180.50 286.02 180.50 278.72L180.50 265.44L177.56 269.10C168.00 280.97 155.89 288.85 143.50 291.24C141.49 291.63 127.79 292.12 127.47 291.81ZM287.93 291.24C260.87 286.98 240.85 267.93 233.82 239.75C232.35 233.88 231.88 229.37 231.87 221.25C231.84 193.63 244.05 169.35 264.75 155.86C272.20 151.00 277.17 148.97 287.25 146.68C293.49 145.25 310.06 145.48 317.50 147.09C331.07 150.02 338.07 154.86 347.13 167.55C349.36 170.68 353.50 178.43 353.50 179.48C353.50 179.91 349.79 181.81 334.00 189.42C331.39 190.68 329.12 191.78 328.96 191.87C328.80 191.96 328.37 190.73 328.02 189.14C325.14 176.25 315.69 164.43 305.55 161.02C296.93 158.11 286.50 158.92 278.27 163.12C260.72 172.07 251.65 200.57 258.28 225.92C264.17 248.43 280.42 264.72 301.01 268.74C304.78 269.47 317.97 269.51 321.25 268.79C335.20 265.74 347.05 258.80 354.66 249.25C356.65 246.75 356.65 246.75 356.30 248.65C352.66 268.35 335.39 285.71 314.95 290.21C312.92 290.66 310.69 291.16 310.00 291.31C307.20 291.95 292.15 291.90 287.93 291.24ZM478.00 291.66C465.24 289.48 456.38 282.26 451.07 269.72C447.08 260.31 447.10 260.65 447.04 209.56C447.01 184.71 446.86 164.18 446.71 163.94C446.57 163.70 441.84 163.56 436.22 163.63C430.60 163.70 426.06 163.59 426.12 163.40C426.29 162.93 470.56 112.78 470.95 112.62C471.11 112.56 471.25 120.54 471.25 130.37L471.25 148.25L495.65 148.50L520.06 148.75L520.15 156.13L520.25 163.50L496.91 163.50C482.59 163.50 473.06 163.69 472.25 164.00C470.94 164.50 470.94 164.50 471.14 206.62C471.24 229.79 471.47 249.50 471.65 250.41C473.13 258.23 475.39 262.86 479.63 266.79C491.81 278.06 509.79 275.22 520.87 260.26C523.09 257.27 523.09 257.27 522.73 259.26C519.68 276.07 510.27 287.28 496.25 290.78C492.91 291.61 481.08 292.18 478.00 291.66ZM583.50 291.24C564.51 288.21 548.56 276.93 538.61 259.51C534.51 252.32 530.67 241.42 529.72 234.25C529.54 232.88 529.30 231.30 529.18 230.75C528.89 229.32 528.95 211.59 529.25 209.50C529.39 208.54 529.61 206.91 529.75 205.88C531.56 191.94 537.92 177.85 547.42 166.75C562.29 149.36 587.38 141.58 608.75 147.75C626.71 152.93 641.51 168.06 647.18 187.05C648.27 190.73 648.76 192.79 649.75 197.98C649.97 199.17 650.57 204.68 650.69 206.75C650.75 207.74 650.40 207.75 601.07 207.88L551.39 208.00L551.69 212.88C552.33 223.51 554.37 231.96 558.20 239.84C567.45 258.84 583.52 269.21 603.75 269.23C623.69 269.24 640.88 261.82 648.57 249.88C650.39 247.06 650.57 246.98 650.17 249.12C646.44 268.95 629.21 286.46 609.50 290.46C607.99 290.76 606.19 291.15 605.50 291.31C602.73 291.95 587.67 291.90 583.50 291.24ZM841.75 291.53C826.34 289.03 815.36 277.13 812.18 259.50C812.06 258.81 811.85 257.69 811.73 257.00C811.60 256.31 811.50 235.21 811.50 210.11C811.51 164.48 811.51 164.48 810.18 163.97C809.43 163.69 804.89 163.49 799.88 163.52C794.95 163.56 790.80 163.47 790.67 163.33C790.53 163.20 800.51 151.67 812.83 137.71L835.25 112.34L835.38 130.42L835.51 148.50L860.01 148.50L884.50 148.50L884.50 156.00L884.50 163.50L860.75 163.56C847.69 163.60 836.72 163.65 836.38 163.69C835.38 163.79 835.33 247.94 836.32 252.75C840.53 273.11 862.03 280.16 879.01 266.75C881.22 265.01 882.37 263.72 886.59 258.32C887.34 257.35 887.33 257.64 886.49 261.27C882.52 278.39 873.81 287.72 858.44 291.31C856.37 291.79 844.36 291.95 841.75 291.53ZM11.08 285.85C16.76 281.52 20.68 272.66 21.85 261.50C22.37 256.60 22.37 47.16 21.85 43.25C20.47 32.77 14.94 25.94 7.19 25.14C5.71 24.98 4.50 24.67 4.50 24.43C4.50 24.19 4.70 24.00 4.95 24.00C5.20 24.00 7.51 23.02 10.08 21.82C12.65 20.62 15.88 19.13 17.25 18.50C18.62 17.88 21.10 16.75 22.75 16.00C24.40 15.25 26.88 14.13 28.25 13.51C29.62 12.89 32.10 11.76 33.75 10.99C42.99 6.71 46.05 5.37 46.37 5.46C46.43 5.48 46.56 62.37 46.65 131.88C46.74 201.38 46.97 259.26 47.16 260.50C47.35 261.74 47.61 263.43 47.73 264.25C49.46 275.34 53.09 282.54 59.01 286.60C60.18 287.40 58.88 287.45 34.59 287.47L8.92 287.50L11.08 285.85ZM368.26 286.58C372.10 284.23 375.44 279.23 377.68 272.50C378.95 268.65 379.21 267.44 379.87 262.25C380.37 258.28 380.36 184.47 379.86 181.25C378.43 172.16 373.57 165.80 366.82 164.24C364.35 163.66 364.30 163.61 365.50 163.06C366.19 162.74 375.30 158.68 385.75 154.04L404.75 145.61L404.87 151.68C404.94 155.02 405.07 181.26 405.15 210.00C405.24 238.74 405.48 263.04 405.69 264.00C405.90 264.96 406.39 267.32 406.78 269.25C408.14 275.96 412.76 283.80 417.00 286.62C418.17 287.40 416.66 287.45 392.50 287.47C367.29 287.50 366.78 287.48 368.26 286.58ZM657.00 287.32C657.00 287.22 658.41 286.28 660.12 285.22C664.17 282.73 675.33 271.55 681.81 263.50C691.82 251.06 713.12 222.00 712.88 221.09C712.75 220.61 710.22 216.51 707.25 211.98C704.28 207.45 700.46 201.61 698.76 199.00C682.01 173.33 678.23 168.04 671.59 160.96C667.24 156.32 662.09 151.94 658.50 149.83C656.25 148.51 656.25 148.51 685.25 148.52C711.98 148.54 714.13 148.60 712.75 149.33C708.39 151.62 706.80 154.41 706.80 159.75C706.80 165.77 707.42 166.97 722.68 190.12C726.44 195.83 729.68 200.49 729.88 200.48C730.58 200.45 749.75 173.72 752.10 169.50C757.51 159.78 756.86 152.75 750.25 149.52C748.25 148.54 748.25 148.54 772.38 148.52C785.64 148.51 796.50 148.60 796.50 148.73C796.50 148.85 795.47 149.41 794.20 149.97C791.30 151.25 787.97 153.65 782.25 158.58C774.59 165.17 770.45 170.04 751.54 194.67L737.40 213.09L742.63 220.92C745.51 225.23 752.94 236.40 759.13 245.75C772.41 265.80 775.31 269.77 780.99 275.68C786.24 281.14 790.58 284.64 794.08 286.23C796.75 287.44 796.75 287.44 768.50 287.45C740.25 287.45 740.25 287.45 742.38 286.42C747.78 283.80 748.48 276.35 744.12 267.75C742.72 264.98 723.94 236.80 722.49 235.31C721.47 234.25 722.55 232.93 708.39 252.48C693.86 272.53 692.17 281.94 702.25 286.52C704.22 287.41 703.86 287.43 680.62 287.46C667.63 287.48 657.00 287.42 657.00 287.32ZM621.27 192.38C619.88 172.47 607.29 158.41 590.75 158.28C579.98 158.20 572.83 161.17 564.95 168.99C558.13 175.74 553.38 184.98 552.28 193.62L551.97 196.00L586.75 196.00L621.52 196.00L621.27 192.38Z"/><g transform="translate(401.90 56.89) scale(70)"><path fill="#6e8b74" transform="translate(0.110 0.602) rotate(-5)" d="M0 0 C0.2 -0.46 0.6 -0.54 0.86 -0.34 C0.66 0.04 0.28 0.14 0 0 Z"/><path fill="#e27c97" transform="rotate(14)" d="M0 0.62 C-0.54 0.24 -0.44 -0.62 0.045 -1.08 C0.52 -0.6 0.5 0.24 0 0.62 Z"/></g></svg>